<mxfile host="Electron" modified="2024-04-23T13:41:14.619Z" agent="Mozilla/5.0 (Windows NT 10.0; Win64; x64) AppleWebKit/537.36 (KHTML, like Gecko) draw.io/24.2.5 Chrome/120.0.6099.109 Electron/28.1.0 Safari/537.36" etag="xMI6p8UO3MwY6gXJoRGz" version="24.2.5" type="device">
  <diagram name="Page-1" id="bSfR5XBGMNqNrBRf6raT">
    <mxGraphModel dx="1434" dy="836" grid="1" gridSize="10" guides="1" tooltips="1" connect="1" arrows="1" fold="1" page="1" pageScale="1" pageWidth="827" pageHeight="1169" math="0" shadow="0">
      <root>
        <mxCell id="0" />
        <mxCell id="1" parent="0" />
        <mxCell id="liCDon_DKJ7ki5QJf0Um-21" style="edgeStyle=orthogonalEdgeStyle;rounded=0;orthogonalLoop=1;jettySize=auto;html=1;" edge="1" parent="1" source="liCDon_DKJ7ki5QJf0Um-1" target="liCDon_DKJ7ki5QJf0Um-2">
          <mxGeometry relative="1" as="geometry">
            <Array as="points">
              <mxPoint x="120" y="330" />
              <mxPoint x="120" y="330" />
            </Array>
          </mxGeometry>
        </mxCell>
        <mxCell id="liCDon_DKJ7ki5QJf0Um-22" value="reply id + metadata + x" style="edgeLabel;html=1;align=center;verticalAlign=middle;resizable=0;points=[];" vertex="1" connectable="0" parent="liCDon_DKJ7ki5QJf0Um-21">
          <mxGeometry x="-0.3576" y="2" relative="1" as="geometry">
            <mxPoint x="-2" y="34" as="offset" />
          </mxGeometry>
        </mxCell>
        <mxCell id="liCDon_DKJ7ki5QJf0Um-25" style="edgeStyle=orthogonalEdgeStyle;rounded=0;orthogonalLoop=1;jettySize=auto;html=1;" edge="1" parent="1" source="liCDon_DKJ7ki5QJf0Um-1" target="liCDon_DKJ7ki5QJf0Um-5">
          <mxGeometry relative="1" as="geometry">
            <Array as="points">
              <mxPoint x="225" y="240" />
              <mxPoint x="225" y="240" />
            </Array>
          </mxGeometry>
        </mxCell>
        <mxCell id="liCDon_DKJ7ki5QJf0Um-26" value="generate" style="edgeLabel;html=1;align=center;verticalAlign=middle;resizable=0;points=[];" vertex="1" connectable="0" parent="liCDon_DKJ7ki5QJf0Um-25">
          <mxGeometry x="-0.0667" y="2" relative="1" as="geometry">
            <mxPoint as="offset" />
          </mxGeometry>
        </mxCell>
        <mxCell id="liCDon_DKJ7ki5QJf0Um-1" value="generate-document-svc" style="rounded=0;whiteSpace=wrap;html=1;verticalAlign=middle;" vertex="1" parent="1">
          <mxGeometry x="60" y="120" width="250" height="110" as="geometry" />
        </mxCell>
        <mxCell id="liCDon_DKJ7ki5QJf0Um-23" style="edgeStyle=orthogonalEdgeStyle;rounded=0;orthogonalLoop=1;jettySize=auto;html=1;entryX=0;entryY=0.5;entryDx=0;entryDy=0;" edge="1" parent="1" source="liCDon_DKJ7ki5QJf0Um-2" target="liCDon_DKJ7ki5QJf0Um-1">
          <mxGeometry relative="1" as="geometry">
            <Array as="points">
              <mxPoint x="40" y="615" />
              <mxPoint x="40" y="175" />
            </Array>
          </mxGeometry>
        </mxCell>
        <mxCell id="liCDon_DKJ7ki5QJf0Um-24" value="request invoice" style="edgeLabel;html=1;align=center;verticalAlign=middle;resizable=0;points=[];" vertex="1" connectable="0" parent="liCDon_DKJ7ki5QJf0Um-23">
          <mxGeometry x="0.3404" y="1" relative="1" as="geometry">
            <mxPoint as="offset" />
          </mxGeometry>
        </mxCell>
        <mxCell id="liCDon_DKJ7ki5QJf0Um-36" style="edgeStyle=orthogonalEdgeStyle;rounded=0;orthogonalLoop=1;jettySize=auto;html=1;entryX=-0.004;entryY=0.918;entryDx=0;entryDy=0;entryPerimeter=0;" edge="1" parent="1" source="liCDon_DKJ7ki5QJf0Um-2" target="liCDon_DKJ7ki5QJf0Um-7">
          <mxGeometry relative="1" as="geometry">
            <Array as="points">
              <mxPoint x="350" y="615" />
              <mxPoint x="350" y="280" />
              <mxPoint x="449" y="280" />
            </Array>
          </mxGeometry>
        </mxCell>
        <mxCell id="liCDon_DKJ7ki5QJf0Um-37" value="approve id" style="edgeLabel;html=1;align=center;verticalAlign=middle;resizable=0;points=[];" vertex="1" connectable="0" parent="liCDon_DKJ7ki5QJf0Um-36">
          <mxGeometry x="-0.1075" relative="1" as="geometry">
            <mxPoint as="offset" />
          </mxGeometry>
        </mxCell>
        <mxCell id="liCDon_DKJ7ki5QJf0Um-2" value="order-food-svc" style="rounded=0;whiteSpace=wrap;html=1;verticalAlign=middle;" vertex="1" parent="1">
          <mxGeometry x="50" y="560" width="250" height="110" as="geometry" />
        </mxCell>
        <mxCell id="liCDon_DKJ7ki5QJf0Um-6" value="" style="group" vertex="1" connectable="0" parent="1">
          <mxGeometry x="200" y="275" width="50" height="80" as="geometry" />
        </mxCell>
        <mxCell id="liCDon_DKJ7ki5QJf0Um-3" value="" style="rounded=0;whiteSpace=wrap;html=1;movable=1;resizable=1;rotatable=1;deletable=1;editable=1;locked=0;connectable=1;" vertex="1" parent="liCDon_DKJ7ki5QJf0Um-6">
          <mxGeometry width="50" height="80" as="geometry" />
        </mxCell>
        <mxCell id="liCDon_DKJ7ki5QJf0Um-5" value="&lt;span style=&quot;font-size: 8px;&quot;&gt;fsdfj sfdjfsd&lt;/span&gt;&lt;div&gt;&lt;span style=&quot;font-size: 8px;&quot;&gt;fsdfsdj&lt;/span&gt;&lt;/div&gt;&lt;div&gt;&lt;span style=&quot;font-size: 8px;&quot;&gt;fsdfs&lt;/span&gt;&lt;/div&gt;&lt;div&gt;&lt;span style=&quot;font-size: 8px;&quot;&gt;fdsjjsj&lt;/span&gt;&lt;/div&gt;&lt;div style=&quot;&quot;&gt;&lt;span style=&quot;font-size: 8px;&quot;&gt;fsdfsdjjj fsdfs&lt;/span&gt;&lt;/div&gt;" style="text;html=1;align=left;verticalAlign=middle;whiteSpace=wrap;rounded=0;movable=1;resizable=1;rotatable=1;deletable=1;editable=1;locked=0;connectable=1;" vertex="1" parent="liCDon_DKJ7ki5QJf0Um-6">
          <mxGeometry width="50" height="80" as="geometry" />
        </mxCell>
        <mxCell id="liCDon_DKJ7ki5QJf0Um-7" value="store-file-svc" style="rounded=0;whiteSpace=wrap;html=1;verticalAlign=middle;" vertex="1" parent="1">
          <mxGeometry x="450" y="170" width="250" height="110" as="geometry" />
        </mxCell>
        <mxCell id="liCDon_DKJ7ki5QJf0Um-8" value="MongoDB" style="shape=cylinder3;whiteSpace=wrap;html=1;boundedLbl=1;backgroundOutline=1;size=15;" vertex="1" parent="1">
          <mxGeometry x="450" y="355" width="160" height="80" as="geometry" />
        </mxCell>
        <mxCell id="liCDon_DKJ7ki5QJf0Um-9" value="Storage" style="shape=cube;whiteSpace=wrap;html=1;boundedLbl=1;backgroundOutline=1;darkOpacity=0.05;darkOpacity2=0.1;size=30;" vertex="1" parent="1">
          <mxGeometry x="620" y="370" width="110" height="50" as="geometry" />
        </mxCell>
        <mxCell id="liCDon_DKJ7ki5QJf0Um-10" value="" style="endArrow=classic;html=1;rounded=0;exitX=1;exitY=0.5;exitDx=0;exitDy=0;entryX=0;entryY=0.5;entryDx=0;entryDy=0;" edge="1" parent="1" source="liCDon_DKJ7ki5QJf0Um-1" target="liCDon_DKJ7ki5QJf0Um-7">
          <mxGeometry width="50" height="50" relative="1" as="geometry">
            <mxPoint x="390" y="460" as="sourcePoint" />
            <mxPoint x="440" y="410" as="targetPoint" />
          </mxGeometry>
        </mxCell>
        <mxCell id="liCDon_DKJ7ki5QJf0Um-11" value="uploads in chunks" style="edgeLabel;html=1;align=center;verticalAlign=middle;resizable=0;points=[];" vertex="1" connectable="0" parent="liCDon_DKJ7ki5QJf0Um-10">
          <mxGeometry x="-0.0715" y="-3" relative="1" as="geometry">
            <mxPoint as="offset" />
          </mxGeometry>
        </mxCell>
        <mxCell id="liCDon_DKJ7ki5QJf0Um-12" style="edgeStyle=orthogonalEdgeStyle;rounded=0;orthogonalLoop=1;jettySize=auto;html=1;" edge="1" parent="1">
          <mxGeometry relative="1" as="geometry">
            <mxPoint x="511" y="280" as="sourcePoint" />
            <mxPoint x="511" y="358" as="targetPoint" />
            <Array as="points">
              <mxPoint x="511" y="358" />
            </Array>
          </mxGeometry>
        </mxCell>
        <mxCell id="liCDon_DKJ7ki5QJf0Um-13" value="save ids" style="edgeLabel;html=1;align=center;verticalAlign=middle;resizable=0;points=[];" vertex="1" connectable="0" parent="liCDon_DKJ7ki5QJf0Um-12">
          <mxGeometry x="-0.0513" y="1" relative="1" as="geometry">
            <mxPoint as="offset" />
          </mxGeometry>
        </mxCell>
        <mxCell id="liCDon_DKJ7ki5QJf0Um-14" style="edgeStyle=orthogonalEdgeStyle;rounded=0;orthogonalLoop=1;jettySize=auto;html=1;entryX=0;entryY=0;entryDx=40;entryDy=0;entryPerimeter=0;" edge="1" parent="1" source="liCDon_DKJ7ki5QJf0Um-7" target="liCDon_DKJ7ki5QJf0Um-9">
          <mxGeometry relative="1" as="geometry">
            <Array as="points">
              <mxPoint x="660" y="300" />
              <mxPoint x="660" y="300" />
            </Array>
          </mxGeometry>
        </mxCell>
        <mxCell id="liCDon_DKJ7ki5QJf0Um-15" value="store file" style="edgeLabel;html=1;align=center;verticalAlign=middle;resizable=0;points=[];" vertex="1" connectable="0" parent="liCDon_DKJ7ki5QJf0Um-14">
          <mxGeometry x="-0.1111" y="1" relative="1" as="geometry">
            <mxPoint as="offset" />
          </mxGeometry>
        </mxCell>
        <mxCell id="liCDon_DKJ7ki5QJf0Um-16" style="edgeStyle=orthogonalEdgeStyle;rounded=0;orthogonalLoop=1;jettySize=auto;html=1;entryX=0.781;entryY=0.063;entryDx=0;entryDy=0;entryPerimeter=0;" edge="1" parent="1" source="liCDon_DKJ7ki5QJf0Um-7" target="liCDon_DKJ7ki5QJf0Um-8">
          <mxGeometry relative="1" as="geometry" />
        </mxCell>
        <mxCell id="liCDon_DKJ7ki5QJf0Um-17" value="store metadata" style="edgeLabel;html=1;align=center;verticalAlign=middle;resizable=0;points=[];" vertex="1" connectable="0" parent="liCDon_DKJ7ki5QJf0Um-16">
          <mxGeometry x="-0.0255" y="2" relative="1" as="geometry">
            <mxPoint as="offset" />
          </mxGeometry>
        </mxCell>
        <mxCell id="liCDon_DKJ7ki5QJf0Um-19" value="" style="endArrow=classic;html=1;rounded=0;entryX=1;entryY=0.75;entryDx=0;entryDy=0;exitX=0;exitY=0.75;exitDx=0;exitDy=0;" edge="1" parent="1" source="liCDon_DKJ7ki5QJf0Um-7" target="liCDon_DKJ7ki5QJf0Um-1">
          <mxGeometry width="50" height="50" relative="1" as="geometry">
            <mxPoint x="390" y="460" as="sourcePoint" />
            <mxPoint x="440" y="410" as="targetPoint" />
          </mxGeometry>
        </mxCell>
        <mxCell id="liCDon_DKJ7ki5QJf0Um-20" value="id + metadata" style="edgeLabel;html=1;align=center;verticalAlign=middle;resizable=0;points=[];" vertex="1" connectable="0" parent="liCDon_DKJ7ki5QJf0Um-19">
          <mxGeometry x="0.2059" y="2" relative="1" as="geometry">
            <mxPoint x="15" y="6" as="offset" />
          </mxGeometry>
        </mxCell>
        <mxCell id="liCDon_DKJ7ki5QJf0Um-28" value="1" style="ellipse;whiteSpace=wrap;html=1;aspect=fixed;" vertex="1" parent="1">
          <mxGeometry x="50" y="320" width="20" height="20" as="geometry" />
        </mxCell>
        <mxCell id="liCDon_DKJ7ki5QJf0Um-29" value="2" style="ellipse;whiteSpace=wrap;html=1;aspect=fixed;" vertex="1" parent="1">
          <mxGeometry x="250" y="255" width="20" height="20" as="geometry" />
        </mxCell>
        <mxCell id="liCDon_DKJ7ki5QJf0Um-30" value="4" style="ellipse;whiteSpace=wrap;html=1;aspect=fixed;" vertex="1" parent="1">
          <mxGeometry x="481" y="330" width="20" height="20" as="geometry" />
        </mxCell>
        <mxCell id="liCDon_DKJ7ki5QJf0Um-31" value="5" style="ellipse;whiteSpace=wrap;html=1;aspect=fixed;" vertex="1" parent="1">
          <mxGeometry x="670" y="330" width="20" height="20" as="geometry" />
        </mxCell>
        <mxCell id="liCDon_DKJ7ki5QJf0Um-32" value="6" style="ellipse;whiteSpace=wrap;html=1;aspect=fixed;" vertex="1" parent="1">
          <mxGeometry x="580" y="330" width="20" height="20" as="geometry" />
        </mxCell>
        <mxCell id="liCDon_DKJ7ki5QJf0Um-33" value="3" style="ellipse;whiteSpace=wrap;html=1;aspect=fixed;" vertex="1" parent="1">
          <mxGeometry x="370" y="170" width="20" height="20" as="geometry" />
        </mxCell>
        <mxCell id="liCDon_DKJ7ki5QJf0Um-34" value="7" style="ellipse;whiteSpace=wrap;html=1;aspect=fixed;" vertex="1" parent="1">
          <mxGeometry x="380" y="240" width="20" height="20" as="geometry" />
        </mxCell>
        <mxCell id="liCDon_DKJ7ki5QJf0Um-35" value="8" style="ellipse;whiteSpace=wrap;html=1;aspect=fixed;" vertex="1" parent="1">
          <mxGeometry x="130" y="410" width="20" height="20" as="geometry" />
        </mxCell>
        <mxCell id="liCDon_DKJ7ki5QJf0Um-38" value="9" style="ellipse;whiteSpace=wrap;html=1;aspect=fixed;" vertex="1" parent="1">
          <mxGeometry x="360" y="460" width="20" height="20" as="geometry" />
        </mxCell>
        <mxCell id="liCDon_DKJ7ki5QJf0Um-41" style="edgeStyle=orthogonalEdgeStyle;rounded=0;orthogonalLoop=1;jettySize=auto;html=1;entryX=0;entryY=0;entryDx=0;entryDy=27.5;entryPerimeter=0;" edge="1" parent="1" source="liCDon_DKJ7ki5QJf0Um-7" target="liCDon_DKJ7ki5QJf0Um-8">
          <mxGeometry relative="1" as="geometry">
            <Array as="points">
              <mxPoint x="460" y="318" />
              <mxPoint x="430" y="318" />
              <mxPoint x="430" y="383" />
            </Array>
          </mxGeometry>
        </mxCell>
        <mxCell id="liCDon_DKJ7ki5QJf0Um-42" value="set approved" style="edgeLabel;html=1;align=center;verticalAlign=middle;resizable=0;points=[];" vertex="1" connectable="0" parent="liCDon_DKJ7ki5QJf0Um-41">
          <mxGeometry x="0.259" y="5" relative="1" as="geometry">
            <mxPoint as="offset" />
          </mxGeometry>
        </mxCell>
        <mxCell id="liCDon_DKJ7ki5QJf0Um-43" value="10" style="ellipse;whiteSpace=wrap;html=1;aspect=fixed;" vertex="1" parent="1">
          <mxGeometry x="404" y="320" width="20" height="20" as="geometry" />
        </mxCell>
        <mxCell id="liCDon_DKJ7ki5QJf0Um-45" style="edgeStyle=orthogonalEdgeStyle;rounded=0;orthogonalLoop=1;jettySize=auto;html=1;" edge="1" parent="1" source="liCDon_DKJ7ki5QJf0Um-44">
          <mxGeometry relative="1" as="geometry">
            <mxPoint x="510" y="440" as="targetPoint" />
          </mxGeometry>
        </mxCell>
        <mxCell id="liCDon_DKJ7ki5QJf0Um-46" value="cleanup&lt;div&gt;not approved&lt;/div&gt;" style="edgeLabel;html=1;align=center;verticalAlign=middle;resizable=0;points=[];" vertex="1" connectable="0" parent="liCDon_DKJ7ki5QJf0Um-45">
          <mxGeometry x="-0.1815" y="-2" relative="1" as="geometry">
            <mxPoint as="offset" />
          </mxGeometry>
        </mxCell>
        <mxCell id="liCDon_DKJ7ki5QJf0Um-44" value="cleanup-orphan-job" style="rounded=0;whiteSpace=wrap;html=1;" vertex="1" parent="1">
          <mxGeometry x="580" y="470" width="120" height="60" as="geometry" />
        </mxCell>
      </root>
    </mxGraphModel>
  </diagram>
</mxfile>
